<?xml version="1.0" encoding="UTF-8"?>
<svg id="Layer_1" xmlns="http://www.w3.org/2000/svg" version="1.1" viewBox="0 0 512 512">
  <!-- Generator: Adobe Illustrator 29.0.1, SVG Export Plug-In . SVG Version: 2.1.0 Build 192)  -->
  <defs>
    <style>
      .st0 {
        fill: #1b1f21;
      }

      .st1 {
        fill: #e64539;
        fill-rule: evenodd;
      }
    </style>
  </defs>
  <path class="st0" d="M0,0h512v512H0V0Z"/>
  <path class="st1" d="M409.2,497.5c-22.5-.1-44.2-7.8-61.7-21.9-2.8-2.5-4.3-6.2-3.9-10,2.4-36.2,27.4-63.3,65.7-63.3s63.4,27.4,65.7,63.3c.3,3.8-1.2,7.5-4.1,10-17.5,14.1-39.3,21.8-61.7,21.9h.2ZM256,165c15.1,0,28.8,9.1,34.5,23.1,5.8,14,2.6,30.1-8.1,40.7-10.7,10.7-26.8,13.9-40.7,8.1-14-5.8-23.1-19.4-23.1-34.5s16.7-37.4,37.4-37.4ZM256,368.2c-28.7-.1-56.5-10-78.9-28-3.8-3.1-5.8-7.9-5.5-12.8,3.2-46.2,35.1-80.9,84.3-80.9s81.1,34.7,84.1,80.9c.4,4.9-1.7,9.7-5.5,12.8-22.3,17.9-50,27.8-78.6,28ZM102.8,338.1c11.8,0,22.5,7.1,27.1,18,4.6,10.9,2.1,23.5-6.3,31.9-8.4,8.4-21,10.9-31.9,6.4-10.9-4.5-18.1-15.2-18.1-27,0-7.8,3.1-15.2,8.5-20.7,5.5-5.5,12.9-8.6,20.7-8.6ZM102.8,497.5c-22.5-.1-44.2-7.8-61.7-21.9-2.8-2.5-4.3-6.2-3.9-9.9,2.4-36.2,27.4-63.3,65.7-63.3s63.5,27.4,65.7,63.3c.3,3.8-1.3,7.5-4.2,10-17.5,14.1-39.3,21.8-61.7,21.9h.2ZM409.2,338.1c11.8,0,22.5,7.1,27,18.1,4.5,10.9,2,23.5-6.3,31.9-8.4,8.4-20.9,10.9-31.9,6.3-10.9-4.5-18.1-15.2-18.1-27s3.1-15.2,8.6-20.7,13-8.6,20.7-8.6ZM102.8,14.5c11.8,0,22.6,7.1,27.1,18,4.6,10.9,2.1,23.6-6.3,31.9-8.4,8.4-21,10.9-31.9,6.3-10.9-4.5-18.1-15.2-18-27.1,0-16.1,13.1-29.2,29.2-29.2ZM102.8,173.9c-22.5,0-44.3-7.8-61.8-21.9-2.8-2.5-4.2-6.3-3.8-10,2.4-36.2,27.4-63.4,65.7-63.4s63.5,27.4,65.7,63.4c.3,3.8-1.2,7.5-4,10-17.5,14.1-39.2,21.8-61.6,21.9h0ZM409.2,14.5c11.8,0,22.5,7.1,27.1,18.1,4.5,10.9,2,23.5-6.4,31.9-8.4,8.4-21,10.9-31.9,6.3-10.9-4.6-18.1-15.2-18-27.1,0-7.8,3.1-15.2,8.6-20.7,5.5-5.5,12.9-8.6,20.7-8.5h0ZM409.2,173.9c-22.5,0-44.2-7.8-61.7-21.9-2.8-2.5-4.3-6.2-3.9-10,2.4-36.2,27.4-63.4,65.7-63.4s63.4,27.4,65.7,63.4c.4,3.7-1,7.5-3.8,10-17.5,14.1-39.4,21.8-61.8,21.9h0ZM184.9,108.2c-1.2.6-2.7.6-3.9.1-1.3-.5-2.3-1.4-2.9-2.7-1.2-2.6,0-5.6,2.6-6.8,47.9-21.9,103-21.9,150.9,0,2.6,1.2,3.7,4.3,2.4,6.9-1.2,2.6-4.3,3.7-6.9,2.4-45.2-20.5-97.1-20.5-142.3,0h0ZM414.7,199.1c-.5-1.3-.5-2.7,0-3.9.5-1.2,1.5-2.2,2.8-2.8,2.6-.9,5.5.3,6.7,2.8,15.6,38.3,17.7,80.8,5.9,120.4-.7,2.7-3.6,4.3-6.3,3.6-2.7-.8-4.3-3.6-3.6-6.3,11.1-37.5,9.1-77.6-5.5-113.8h0ZM332.2,417.3c2.5-1.2,5.6-.2,6.8,2.4,1.2,2.5.2,5.6-2.4,6.8-50.8,25.2-110.5,25.2-161.4,0-2.3-1.4-3.2-4.3-2-6.7,1.2-2.4,4-3.5,6.5-2.5,48,23.8,104.4,23.8,152.4,0h0ZM91.8,312.9c.8,2.7-.7,5.6-3.4,6.4-2.7.8-5.6-.7-6.4-3.4-11.8-39.6-9.7-82.1,5.9-120.4,1.1-2.6,4.1-3.8,6.7-2.8,2.5,1.1,3.6,3.9,2.7,6.5-14.6,36.2-16.6,76.3-5.5,113.8h0Z"/>
</svg>